<?xml version="1.0" encoding="utf-8"?>
<!-- Generator: Adobe Illustrator 19.0.0, SVG Export Plug-In . SVG Version: 6.00 Build 0)  -->
<svg version="1.1" id="Calque_1" xmlns="http://www.w3.org/2000/svg" xmlns:xlink="http://www.w3.org/1999/xlink" x="0px" y="0px"
	 viewBox="0 0 109 48.1" style="enable-background:new 0 0 109 48.1;" xml:space="preserve">
<g id="XMLID_158_">
	<g id="XMLID_102_">
		<path id="XMLID_103_" d="M3.5,4.5C5.1,4.2,7,4.1,9.2,4.1c3.8,0,6.6,0.9,8.4,2.6c1.8,1.7,2.9,4.1,2.9,7.5c0,3.4-1,6.2-3,8.1
			c-1.9,1.9-5.1,3-9.2,3c-1.9,0-3.5-0.1-4.9-0.2V4.5z M6.2,22.8C6.8,23,7.8,23,8.9,23c5.7,0,8.8-3.2,8.8-8.8c0-4.9-2.7-8-8.4-8
			c-1.4,0-2.4,0.1-3.1,0.3V22.8z"/>
		<path id="XMLID_106_" d="M25.5,18c0.1,3.7,2.4,5.2,5.1,5.2c1.9,0,3.1-0.3,4.1-0.8l0.5,1.9c-1,0.4-2.6,0.9-5,0.9
			c-4.6,0-7.3-3-7.3-7.5c0-4.5,2.6-8,7-8c4.9,0,6.2,4.3,6.2,7c0,0.6-0.1,1-0.1,1.3H25.5z M33.5,16.1c0-1.7-0.7-4.4-3.8-4.4
			c-2.7,0-3.9,2.5-4.2,4.4H33.5z"/>
		<path id="XMLID_109_" d="M40.5,10.1l2.9,8.4c0.5,1.4,0.9,2.6,1.2,3.8h0.1c0.3-1.2,0.8-2.5,1.3-3.8l2.9-8.4h2.8L45.8,25h-2.6
			l-5.7-14.9H40.5z"/>
		<path id="XMLID_111_" d="M55.5,18c0.1,3.7,2.4,5.2,5.1,5.2c1.9,0,3.1-0.3,4.1-0.8l0.5,1.9c-1,0.4-2.6,0.9-5,0.9
			c-4.6,0-7.3-3-7.3-7.5c0-4.5,2.6-8,7-8c4.9,0,6.2,4.3,6.2,7c0,0.6-0.1,1-0.1,1.3H55.5z M63.4,16.1c0-1.7-0.7-4.4-3.8-4.4
			c-2.7,0-3.9,2.5-4.2,4.4H63.4z"/>
		<path id="XMLID_114_" d="M69.4,3.1h2.7V25h-2.7V3.1z"/>
		<path id="XMLID_116_" d="M90.1,17.4c0,5.5-3.8,7.9-7.4,7.9c-4,0-7.1-3-7.1-7.7c0-5,3.3-7.9,7.4-7.9C87.2,9.7,90.1,12.8,90.1,17.4z
			 M78.3,17.5c0,3.3,1.9,5.7,4.5,5.7c2.6,0,4.5-2.4,4.5-5.8c0-2.5-1.3-5.7-4.5-5.7C79.7,11.8,78.3,14.7,78.3,17.5z"/>
		<path id="XMLID_119_" d="M93.5,14.9c0-1.9-0.1-3.4-0.1-4.9h2.4l0.1,2.6H96c1.1-1.8,2.9-2.9,5.3-2.9c3.6,0,6.3,3,6.3,7.6
			c0,5.4-3.3,8-6.8,8c-2,0-3.7-0.9-4.6-2.3h-0.1v8.1h-2.7V14.9z M96.2,18.9c0,0.4,0.1,0.8,0.1,1.1c0.5,1.9,2.1,3.2,4.1,3.2
			c2.9,0,4.5-2.3,4.5-5.8c0-3-1.6-5.5-4.4-5.5c-1.8,0-3.6,1.3-4.1,3.4c-0.1,0.3-0.2,0.7-0.2,1.1V18.9z"/>
	</g>
	<g id="XMLID_85_">
		<path id="XMLID_86_" d="M15.5,24.9h2.7v21.9h-2.7V24.9z"/>
		<path id="XMLID_88_" d="M31,46.8l-0.2-1.9h-0.1c-0.8,1.2-2.4,2.2-4.6,2.2c-3,0-4.6-2.1-4.6-4.3c0-3.6,3.2-5.6,9-5.5V37
			c0-1.2-0.3-3.4-3.4-3.4c-1.4,0-2.8,0.4-3.9,1.1l-0.6-1.8c1.2-0.8,3-1.3,4.9-1.3c4.6,0,5.7,3.1,5.7,6.1v5.6c0,1.3,0.1,2.6,0.2,3.6
			H31z M30.6,39.2c-3-0.1-6.3,0.5-6.3,3.4c0,1.8,1.2,2.6,2.6,2.6c1.9,0,3.2-1.2,3.6-2.5c0.1-0.3,0.2-0.6,0.2-0.9V39.2z"/>
		<path id="XMLID_91_" d="M40.7,27.6v4.3h3.9v2.1h-3.9v8c0,1.8,0.5,2.9,2,2.9c0.7,0,1.2-0.1,1.6-0.2l0.1,2c-0.5,0.2-1.4,0.4-2.4,0.4
			c-1.3,0-2.3-0.4-2.9-1.1c-0.8-0.8-1-2.1-1-3.9v-8.1h-2.3v-2.1h2.3v-3.6L40.7,27.6z"/>
		<path id="XMLID_93_" d="M47.9,46.8V33.9h-2.1v-2.1h2.1v-0.7c0-2.1,0.5-4,1.7-5.2c1-1,2.4-1.4,3.6-1.4c1,0,1.8,0.2,2.3,0.4
			l-0.4,2.1c-0.4-0.2-1-0.3-1.7-0.3c-2.3,0-2.9,2-2.9,4.3v0.8h3.6v2.1h-3.6v12.8H47.9z"/>
		<path id="XMLID_95_" d="M69.7,39.2c0,5.5-3.8,7.9-7.4,7.9c-4,0-7.1-3-7.1-7.7c0-5,3.3-7.9,7.4-7.9C66.9,31.5,69.7,34.6,69.7,39.2z
			 M57.9,39.4c0,3.3,1.9,5.7,4.5,5.7c2.6,0,4.5-2.4,4.5-5.8c0-2.5-1.3-5.7-4.5-5.7C59.3,33.6,57.9,36.5,57.9,39.4z"/>
		<path id="XMLID_98_" d="M73.2,36.5c0-1.8,0-3.3-0.1-4.6h2.4l0.1,2.9h0.1c0.7-2,2.3-3.3,4.1-3.3c0.3,0,0.5,0,0.8,0.1v2.6
			c-0.3-0.1-0.6-0.1-0.9-0.1c-1.9,0-3.3,1.4-3.6,3.5c-0.1,0.4-0.1,0.8-0.1,1.3v7.9h-2.7V36.5z"/>
		<path id="XMLID_100_" d="M83.4,35.9c0-1.5,0-2.8-0.1-4h2.4l0.1,2.4h0.1c0.8-1.4,2.2-2.7,4.7-2.7c2,0,3.6,1.2,4.2,3h0.1
			c0.5-0.8,1-1.5,1.7-1.9c0.9-0.7,1.9-1,3.3-1c2,0,4.9,1.3,4.9,6.5v8.8H102v-8.4c0-2.9-1-4.6-3.2-4.6c-1.5,0-2.7,1.1-3.2,2.5
			c-0.1,0.4-0.2,0.9-0.2,1.4v9.2h-2.6v-8.9c0-2.4-1-4.1-3.1-4.1c-1.7,0-2.9,1.4-3.4,2.7c-0.2,0.4-0.2,0.9-0.2,1.3v9h-2.6V35.9z"/>
	</g>
	<g id="XMLID_82_">
		<path id="XMLID_83_" d="M3.5,5.7l2.6-1.3v42.3H3.4L3.5,5.7z"/>
	</g>
</g>
</svg>
